<svg id="Capa_1" enable-background="new 0 0 952 952" height="512" viewBox="0 0 952 952" width="512" xmlns="http://www.w3.org/2000/svg"><g><g><path d="m553.136 438.338c13.052-16.649 20.864-37.593 20.864-60.338 0-54.038-43.962-98-98-98s-98 43.962-98 98c0 22.745 7.812 43.689 20.864 60.338-46.87 23.281-82.294 66.563-90.502 117.18l-.362 2.227v58.255h336v-58.255l-.36-2.225c-8.208-50.618-43.634-93.901-90.504-117.182zm-119.136-60.338c0-23.16 18.84-42 42-42s42 18.84 42 42-18.84 42-42 42-42-18.84-42-42zm-69.511 182c10.171-46.713 59.132-84 111.511-84s101.339 37.287 111.511 84z"/><path d="m504 141.176v-141.176h-56v141.176c-162.982 13.511-293.313 143.842-306.824 306.824h-141.176v56h141.176c13.511 162.982 143.842 293.313 306.824 306.824v141.176h56v-141.176c162.982-13.511 293.313-143.842 306.824-306.824h141.176v-56h-141.176c-13.511-162.982-143.842-293.313-306.824-306.824zm-28 614.824c-154.392 0-280-125.608-280-280s125.608-280 280-280 280 125.608 280 280-125.608 280-280 280z"/><path d="m728 0v56h168v168h56v-224z"/><path d="m56 56h168v-56h-224v224h56z"/><path d="m896 896h-168v56h224v-224h-56z"/><path d="m56 728h-56v224h224v-56h-168z"/></g></g></svg>