<svg height="480pt" viewBox="0 0 480.00003 480" width="480pt" xmlns="http://www.w3.org/2000/svg"><path d="m240 304c-8.835938 0-16-7.164062-16-16h-16c0 17.671875 14.328125 32 32 32s32-14.328125 32-32h-16c0 8.835938-7.164062 16-16 16zm0 0"/><path d="m456 96h-104v-64c0-17.671875-14.328125-32-32-32h-160c-17.671875 0-32 14.328125-32 32v64h-104c-13.253906 0-24 10.746094-24 24v96c-.00390625 2.863281 1.519531 5.511719 4 6.945312l12 6.839844v194.214844c0 13.253906 10.746094 24 24 24h80v24c0 4.417969 3.582031 8 8 8h224c4.417969 0 8-3.582031 8-8v-24h80c13.253906 0 24-10.746094 24-24v-194.214844l12-6.839844c2.480469-1.433593 4.003906-4.082031 4-6.945312v-96c0-13.253906-10.746094-24-24-24zm-136 0v-32h16v32zm-16 0h-128v-48h128zm-144-80h160c8.835938 0 16 7.164062 16 16v16h-16v-8c0-4.417969-3.582031-8-8-8h-144c-4.417969 0-8 3.582031-8 8v8h-16v-16c0-8.835938 7.164062-16 16-16zm-16 48h16v32h-16zm-104 368c-4.417969 0-8-3.582031-8-8v-185.070312l28 16c1.214844.703124 2.59375 1.074218 4 1.070312h96v8c0 4.417969 3.582031 8 8 8v8c.039062 27.316406 15.53125 52.257812 40 64.398438v9.488281l-46.769531 12.722656c-24.300781 6.730469-41.152344 28.8125-41.230469 54.03125v11.359375zm152-57.183594 11.199219-3.046875 28.800781 24v20.230469h16v-20.246094l28.800781-24 11.199219 3.039063v13.871093l-48 48-48-48zm66.792969-8.871094-18.792969 15.65625-18.792969-15.648437c1.75-1.484375 2.769531-3.65625 2.792969-5.953125v-9.855469c10.523438 2.472657 21.476562 2.472657 32 0v9.855469c.027344 2.292969 1.042969 4.460938 2.792969 5.945312zm-18.792969-29.945312c-30.914062-.035156-55.964844-25.085938-56-56v-8h21.496094c19.105468.054688 37.433594-7.539062 50.902344-21.089844l5.601562-5.597656c7.605469 12.476562 19.820312 21.453125 34 24.984375v9.703125c-.035156 30.914062-25.085938 55.964844-56 56zm64-80.390625c-13.007812-1.820313-24.28125-9.949219-30.113281-21.722656l-2.726563-5.460938c-1.152344-2.296875-3.332031-3.902343-5.867187-4.3125-2.535157-.414062-5.113281.417969-6.933594 2.230469l-13.269531 13.257812c-10.480469 10.53125-24.734375 16.4375-39.59375 16.398438h-29.496094v-16c0-35.347656 28.652344-64 64-64s64 28.652344 64 64zm40 208.390625h-24v-40h-16v40h-128v-40h-16v40h-24v-43.359375c.058594-18.015625 12.101562-33.792969 29.464844-38.601563l10.535156-2.839843v12.800781c0 2.121094.84375 4.15625 2.34375 5.65625l56 56c3.125 3.121094 8.1875 3.121094 11.3125 0l56-56c1.5-1.5 2.34375-3.535156 2.34375-5.65625v-12.800781l10.511719 2.863281c17.359375 4.804688 29.410156 20.566406 29.488281 38.578125zm104-40c0 4.417969-3.582031 8-8 8h-80v-11.359375c-.078125-25.226563-16.941406-47.316406-41.257812-54.039063l-46.742188-12.714843v-9.488281c24.46875-12.140626 39.960938-37.082032 40-64.398438v-8c4.417969 0 8-3.582031 8-8v-8h96c1.402344.007812 2.785156-.355469 4-1.054688l28-16zm16-212.640625-50.128906 28.640625h-93.871094c0-44.183594-35.816406-80-80-80s-80 35.816406-80 80h-93.871094l-50.128906-28.640625v-91.359375c0-4.417969 3.582031-8 8-8h432c4.417969 0 8 3.582031 8 8zm0 0"/></svg>