<svg id="Icons" height="512" viewBox="0 0 74 74" width="512" xmlns="http://www.w3.org/2000/svg"><path d="m37 65.818a1 1 0 0 1 -.794-.392c-.851-1.111-20.812-27.375-20.812-41.82a21.606 21.606 0 1 1 43.212 0c0 14.445-19.961 40.709-20.812 41.82a1 1 0 0 1 -.794.392zm0-61.818a19.628 19.628 0 0 0 -19.606 19.606c0 12.2 15.84 34.428 19.606 39.54 3.766-5.112 19.606-27.345 19.606-39.54a19.628 19.628 0 0 0 -19.606-19.606z"/><path d="m37 38.686a14.91 14.91 0 1 1 14.909-14.91 14.926 14.926 0 0 1 -14.909 14.91zm0-27.819a12.91 12.91 0 1 0 12.909 12.909 12.924 12.924 0 0 0 -12.909-12.909z"/><path d="m39.5 71.94a1 1 0 0 1 -.039-2c.992-.04 1.96-.109 2.876-.206a1 1 0 0 1 .209 1.99c-.958.1-1.97.172-3.005.214z"/><path d="m22.56 69.791a1 1 0 0 1 -.347-.063c-4.4-1.629-6.823-3.922-6.823-6.458 0-3.968 5.979-7.243 15.232-8.343a1 1 0 1 1 .236 1.986c-8.842 1.051-13.468 3.994-13.468 6.357 0 1.59 2.062 3.3 5.516 4.582a1 1 0 0 1 -.346 1.939z"/><path d="m32.5 71.81h-.08c-1.03-.082-2.042-.2-3.007-.338a1 1 0 1 1 .291-1.978c.921.135 1.888.244 2.874.322a1 1 0 0 1 -.078 2z"/><path d="m49.439 70.44a1 1 0 0 1 -.274-1.961c4.593-1.315 7.445-3.311 7.445-5.209 0-2.363-4.626-5.306-13.468-6.357a1 1 0 1 1 .236-1.986c9.253 1.1 15.232 4.375 15.232 8.343 0 2.957-3.159 5.489-8.894 7.131a.98.98 0 0 1 -.277.039z"/></svg>