<?xml version="1.0" encoding="UTF-8"?>
<svg xmlns="http://www.w3.org/2000/svg" xmlns:xlink="http://www.w3.org/1999/xlink" width="343pt" height="200pt" viewBox="0 0 343 200" version="1.1">
<g id="surface1">
<path style=" stroke:none;fill-rule:evenodd;fill:rgb(100%,100%,100%);fill-opacity:1;" d="M 0.332031 0.960938 L 341.894531 0.960938 L 341.894531 198.96875 L 0.332031 198.96875 L 0.332031 0.960938 "/>
<path style="fill:none;stroke-width:2.16;stroke-linecap:butt;stroke-linejoin:miter;stroke:rgb(13.699341%,12.199402%,12.5%);stroke-opacity:1;stroke-miterlimit:2.6131;" d="M 3.320313 1990.390625 L 3418.945313 1990.390625 L 3418.945313 10.3125 L 3.320313 10.3125 Z M 3.320313 1990.390625 " transform="matrix(0.1,0,0,-0.1,0,200)"/>
<path style=" stroke:none;fill-rule:evenodd;fill:rgb(0%,65.098572%,31.399536%);fill-opacity:1;" d="M 91.910156 0.960938 L 341.894531 0.960938 L 341.894531 198.96875 L 91.910156 198.96875 L 91.910156 0.960938 "/>
<path style=" stroke:none;fill-rule:evenodd;fill:rgb(100%,100%,100%);fill-opacity:1;" d="M 191.949219 32.976563 C 179.882813 44.644531 172.359375 60.984375 172.359375 79.023438 C 172.359375 114.332031 201.15625 143.125 236.460938 143.125 C 251.265625 143.125 264.921875 138.054688 275.792969 129.574219 L 275.792969 129.347656 C 264.324219 151.125 241.457031 166.035156 215.214844 166.035156 C 177.535156 166.035156 146.800781 135.300781 146.800781 97.617188 C 146.800781 68.097656 165.660156 42.847656 191.949219 33.289063 L 191.949219 32.976563 "/>
<path style=" stroke:none;fill-rule:evenodd;fill:rgb(100%,100%,100%);fill-opacity:1;" d="M 243.410156 95.5625 L 270.058594 50.890625 L 246.152344 61.128906 L 222.242188 71.367188 L 247.601563 77.136719 L 272.964844 82.90625 L 255.839844 63.332031 L 238.710938 43.757813 L 241.0625 69.660156 L 243.410156 95.5625 "/>
<path style=" stroke:none;fill-rule:evenodd;fill:rgb(100%,100%,100%);fill-opacity:1;" d="M 247.070313 78.984375 C 252.683594 80.261719 258.304688 76.722656 259.582031 71.109375 C 260.859375 65.496094 257.320313 59.878906 251.710938 58.601563 C 246.09375 57.324219 240.476563 60.859375 239.199219 66.472656 C 237.921875 72.085938 241.457031 77.707031 247.070313 78.984375 "/>
</g>
</svg>
