<?xml version="1.0" encoding="UTF-8"?>
<svg xmlns="http://www.w3.org/2000/svg" xmlns:xlink="http://www.w3.org/1999/xlink" width="130.98pt" height="78.61pt" viewBox="0 0 130.98 78.61" version="1.1">
<defs>
<clipPath id="clip1">
  <path d="M 0 0 L 130.980469 0 L 130.980469 60 L 0 60 Z M 0 0 "/>
</clipPath>
<clipPath id="clip2">
  <path d="M 40 68 L 50 68 L 50 78.609375 L 40 78.609375 Z M 40 68 "/>
</clipPath>
</defs>
<g id="surface1">
<path style=" stroke:none;fill-rule:nonzero;fill:rgb(1.998901%,25.498962%,39.99939%);fill-opacity:1;" d="M 47.503906 44.402344 L 26.238281 44.402344 C 23.152344 44.402344 20.640625 41.890625 20.640625 38.804688 L 20.640625 18.191406 L 24.640625 18.191406 L 24.640625 38.804688 C 24.640625 39.6875 25.355469 40.402344 26.238281 40.402344 L 47.503906 40.402344 C 48.386719 40.402344 49.101563 39.6875 49.101563 38.804688 L 49.101563 18.191406 L 53.101563 18.191406 L 53.101563 38.804688 C 53.101563 41.890625 50.589844 44.402344 47.503906 44.402344 "/>
<path style=" stroke:none;fill-rule:nonzero;fill:rgb(1.998901%,25.498962%,39.99939%);fill-opacity:1;" d="M 128.585938 44.402344 L 105.324219 44.402344 C 102.234375 44.402344 99.722656 41.890625 99.722656 38.804688 L 99.722656 18.191406 L 103.722656 18.191406 L 103.722656 38.804688 C 103.722656 39.6875 104.441406 40.402344 105.324219 40.402344 L 128.585938 40.402344 L 128.585938 44.402344 "/>
<path style=" stroke:none;fill-rule:nonzero;fill:rgb(1.998901%,25.498962%,39.99939%);fill-opacity:1;" d="M 85.878906 33.714844 L 62.011719 33.714844 L 62.011719 29.714844 L 85.878906 29.714844 C 87.851563 29.714844 88.476563 28.996094 88.476563 28.113281 L 88.476563 23.839844 C 88.476563 22.957031 87.78125 22.238281 85.878906 22.238281 L 62.011719 22.238281 L 62.011719 18.238281 L 85.878906 18.238281 C 90.085938 18.238281 92.476563 20.753906 92.476563 23.839844 L 92.476563 28.113281 C 92.476563 31.199219 90.589844 33.714844 85.878906 33.714844 "/>
<path style=" stroke:none;fill-rule:nonzero;fill:rgb(1.998901%,25.498962%,39.99939%);fill-opacity:1;" d="M 85.878906 45.1875 L 62.011719 45.1875 L 62.011719 41.1875 L 85.878906 41.1875 C 88.070313 41.1875 88.476563 40.46875 88.476563 39.585938 L 88.476563 35.3125 C 88.476563 34.429688 87.492188 33.714844 85.878906 33.714844 L 62.011719 33.714844 L 62.011719 29.714844 L 85.878906 29.714844 C 89.871094 29.714844 92.476563 32.226563 92.476563 35.3125 L 92.476563 39.585938 C 92.476563 42.675781 90.589844 45.1875 85.878906 45.1875 "/>
<path style=" stroke:none;fill-rule:nonzero;fill:rgb(1.998901%,25.498962%,39.99939%);fill-opacity:1;" d="M 64.011719 45.1875 L 60.011719 45.1875 L 60.011719 18.238281 L 64.011719 18.238281 L 64.011719 45.1875 "/>
<g clip-path="url(#clip1)" clip-rule="nonzero">
<path style=" stroke:none;fill-rule:nonzero;fill:rgb(1.998901%,25.498962%,39.99939%);fill-opacity:1;" d="M 79.074219 58.179688 C 41.097656 58.433594 10.230469 45.929688 10.125 30.246094 C 10.019531 14.5625 40.714844 1.640625 78.691406 1.382813 C 89.832031 1.308594 100.359375 2.335938 109.675781 4.214844 C 111.992188 4.683594 112.046875 4.542969 109.746094 4 C 98.988281 1.457031 86.507813 -0.00390625 73.1875 -0.00390625 C 32.765625 -0.00390625 0 13.402344 0 29.933594 C 0 46.46875 32.765625 59.871094 73.1875 59.871094 C 95.523438 59.871094 115.511719 55.777344 128.929688 49.324219 C 131.738281 47.972656 131.628906 47.773438 128.796875 49.023438 C 116.3125 54.539063 98.664063 58.046875 79.074219 58.179688 "/>
</g>
<path style=" stroke:none;fill-rule:nonzero;fill:rgb(1.998901%,25.498962%,39.99939%);fill-opacity:1;" d="M 113.25 4.371094 C 113.25 6.304688 111.683594 7.871094 109.75 7.871094 C 107.816406 7.871094 106.25 6.304688 106.25 4.371094 C 106.25 2.4375 107.816406 0.871094 109.75 0.871094 C 111.683594 0.871094 113.25 2.4375 113.25 4.371094 "/>
<path style=" stroke:none;fill-rule:nonzero;fill:rgb(1.998901%,25.498962%,39.99939%);fill-opacity:1;" d="M 9.121094 75.664063 L 8.46875 69.441406 L 9.488281 69.441406 L 9.769531 72.234375 L 9.882813 73.804688 C 9.890625 73.921875 9.902344 74.160156 9.917969 74.515625 C 10.035156 74.117188 10.136719 73.8125 10.21875 73.597656 C 10.296875 73.386719 10.429688 73.082031 10.609375 72.6875 L 12.09375 69.441406 L 13.246094 69.441406 L 13.453125 72.550781 C 13.480469 73.023438 13.503906 73.65625 13.511719 74.445313 C 13.707031 73.921875 14.023438 73.195313 14.464844 72.265625 L 15.800781 69.441406 L 16.859375 69.441406 L 13.820313 75.664063 L 12.71875 75.664063 L 12.484375 72.011719 C 12.46875 71.785156 12.457031 71.34375 12.449219 70.6875 C 12.289063 71.105469 12.097656 71.558594 11.882813 72.042969 L 10.234375 75.664063 L 9.121094 75.664063 "/>
<path style=" stroke:none;fill-rule:nonzero;fill:rgb(1.998901%,25.498962%,39.99939%);fill-opacity:1;" d="M 16.125 75.664063 L 17.917969 67.074219 L 18.976563 67.074219 L 18.292969 70.371094 C 18.6875 69.988281 19.054688 69.714844 19.394531 69.550781 C 19.734375 69.382813 20.082031 69.300781 20.441406 69.300781 C 20.957031 69.300781 21.359375 69.4375 21.644531 69.707031 C 21.929688 69.980469 22.070313 70.335938 22.070313 70.78125 C 22.070313 71 22.007813 71.402344 21.882813 71.988281 L 21.117188 75.664063 L 20.054688 75.664063 L 20.847656 71.894531 C 20.960938 71.347656 21.015625 71.003906 21.015625 70.863281 C 21.015625 70.660156 20.945313 70.496094 20.804688 70.367188 C 20.664063 70.238281 20.460938 70.171875 20.195313 70.171875 C 19.8125 70.171875 19.449219 70.273438 19.101563 70.476563 C 18.753906 70.675781 18.480469 70.953125 18.28125 71.300781 C 18.085938 71.652344 17.90625 72.214844 17.742188 72.992188 L 17.183594 75.664063 L 16.125 75.664063 "/>
<path style=" stroke:none;fill-rule:nonzero;fill:rgb(1.998901%,25.498962%,39.99939%);fill-opacity:1;" d="M 23.804688 72.007813 L 27.296875 72.007813 C 27.300781 71.898438 27.304688 71.820313 27.304688 71.773438 C 27.304688 71.242188 27.171875 70.835938 26.90625 70.550781 C 26.640625 70.269531 26.296875 70.125 25.878906 70.125 C 25.425781 70.125 25.015625 70.28125 24.640625 70.59375 C 24.269531 70.90625 23.988281 71.378906 23.804688 72.007813 Z M 26.886719 73.546875 L 27.917969 73.652344 C 27.769531 74.164063 27.429688 74.652344 26.898438 75.113281 C 26.363281 75.574219 25.726563 75.804688 24.988281 75.804688 C 24.527344 75.804688 24.105469 75.699219 23.71875 75.484375 C 23.335938 75.273438 23.042969 74.960938 22.84375 74.554688 C 22.640625 74.148438 22.539063 73.6875 22.539063 73.167969 C 22.539063 72.488281 22.699219 71.828125 23.011719 71.191406 C 23.328125 70.550781 23.734375 70.078125 24.234375 69.765625 C 24.734375 69.457031 25.273438 69.300781 25.855469 69.300781 C 26.597656 69.300781 27.191406 69.53125 27.636719 69.992188 C 28.078125 70.453125 28.300781 71.082031 28.300781 71.878906 C 28.300781 72.183594 28.273438 72.496094 28.21875 72.816406 L 23.636719 72.816406 C 23.621094 72.9375 23.613281 73.046875 23.613281 73.144531 C 23.613281 73.726563 23.746094 74.171875 24.015625 74.476563 C 24.28125 74.785156 24.609375 74.9375 24.996094 74.9375 C 25.359375 74.9375 25.714844 74.816406 26.066406 74.578125 C 26.417969 74.339844 26.691406 73.996094 26.886719 73.546875 "/>
<path style=" stroke:none;fill-rule:nonzero;fill:rgb(1.998901%,25.498962%,39.99939%);fill-opacity:1;" d="M 28.511719 75.664063 L 29.8125 69.441406 L 30.75 69.441406 L 30.484375 70.710938 C 30.804688 70.230469 31.121094 69.875 31.425781 69.644531 C 31.734375 69.414063 32.046875 69.300781 32.367188 69.300781 C 32.578125 69.300781 32.835938 69.375 33.144531 69.527344 L 32.710938 70.511719 C 32.527344 70.378906 32.328125 70.3125 32.109375 70.3125 C 31.738281 70.3125 31.355469 70.519531 30.964844 70.933594 C 30.574219 71.347656 30.269531 72.09375 30.046875 73.167969 L 29.519531 75.664063 L 28.511719 75.664063 "/>
<path style=" stroke:none;fill-rule:nonzero;fill:rgb(1.998901%,25.498962%,39.99939%);fill-opacity:1;" d="M 33.515625 72.007813 L 37.007813 72.007813 C 37.011719 71.898438 37.015625 71.820313 37.015625 71.773438 C 37.015625 71.242188 36.882813 70.835938 36.613281 70.550781 C 36.347656 70.269531 36.007813 70.125 35.589844 70.125 C 35.136719 70.125 34.722656 70.28125 34.351563 70.59375 C 33.976563 70.90625 33.699219 71.378906 33.515625 72.007813 Z M 36.597656 73.546875 L 37.628906 73.652344 C 37.480469 74.164063 37.140625 74.652344 36.605469 75.113281 C 36.074219 75.574219 35.4375 75.804688 34.699219 75.804688 C 34.238281 75.804688 33.816406 75.699219 33.429688 75.484375 C 33.046875 75.273438 32.753906 74.960938 32.550781 74.554688 C 32.351563 74.148438 32.25 73.6875 32.25 73.167969 C 32.25 72.488281 32.40625 71.828125 32.722656 71.191406 C 33.035156 70.550781 33.445313 70.078125 33.945313 69.765625 C 34.445313 69.457031 34.984375 69.300781 35.566406 69.300781 C 36.308594 69.300781 36.902344 69.53125 37.34375 69.992188 C 37.789063 70.453125 38.011719 71.082031 38.011719 71.878906 C 38.011719 72.183594 37.980469 72.496094 37.925781 72.816406 L 33.34375 72.816406 C 33.332031 72.9375 33.324219 73.046875 33.324219 73.144531 C 33.324219 73.726563 33.457031 74.171875 33.722656 74.476563 C 33.992188 74.785156 34.320313 74.9375 34.707031 74.9375 C 35.070313 74.9375 35.425781 74.816406 35.777344 74.578125 C 36.128906 74.339844 36.402344 73.996094 36.597656 73.546875 "/>
<g clip-path="url(#clip2)" clip-rule="nonzero">
<path style=" stroke:none;fill-rule:nonzero;fill:rgb(1.998901%,25.498962%,39.99939%);fill-opacity:1;" d="M 41.84375 68.402344 L 43.800781 68.402344 L 44.292969 72.019531 C 44.414063 72.949219 44.484375 73.601563 44.496094 73.976563 C 44.753906 73.230469 45.105469 72.449219 45.550781 71.625 L 47.285156 68.402344 L 49.363281 68.402344 L 44.882813 76.375 C 44.511719 77.035156 44.222656 77.496094 44.007813 77.761719 C 43.796875 78.027344 43.542969 78.234375 43.242188 78.382813 C 42.945313 78.535156 42.585938 78.609375 42.167969 78.609375 C 41.753906 78.609375 41.285156 78.535156 40.765625 78.390625 L 40.9375 76.929688 C 41.171875 76.996094 41.402344 77.03125 41.628906 77.03125 C 42.226563 77.03125 42.722656 76.574219 43.109375 75.664063 L 41.84375 68.402344 "/>
</g>
<path style=" stroke:none;fill-rule:nonzero;fill:rgb(1.998901%,25.498962%,39.99939%);fill-opacity:1;" d="M 54.34375 71.246094 C 54.34375 70.78125 54.207031 70.410156 53.933594 70.128906 C 53.664063 69.847656 53.316406 69.710938 52.886719 69.710938 C 52.460938 69.710938 52.085938 69.839844 51.757813 70.101563 C 51.429688 70.363281 51.175781 70.746094 50.992188 71.242188 C 50.808594 71.742188 50.71875 72.203125 50.71875 72.621094 C 50.71875 73.140625 50.859375 73.554688 51.144531 73.859375 C 51.425781 74.164063 51.78125 74.316406 52.210938 74.316406 C 52.746094 74.316406 53.199219 74.085938 53.5625 73.625 C 54.082031 72.976563 54.34375 72.183594 54.34375 71.246094 Z M 48.75 72.648438 C 48.75 71.304688 49.128906 70.230469 49.890625 69.433594 C 50.648438 68.632813 51.644531 68.234375 52.878906 68.234375 C 53.949219 68.234375 54.785156 68.527344 55.386719 69.117188 C 55.988281 69.707031 56.289063 70.503906 56.289063 71.5 C 56.289063 72.675781 55.914063 73.691406 55.160156 74.550781 C 54.410156 75.40625 53.402344 75.835938 52.140625 75.835938 C 51.457031 75.835938 50.851563 75.699219 50.324219 75.425781 C 49.792969 75.152344 49.398438 74.761719 49.140625 74.261719 C 48.878906 73.761719 48.75 73.222656 48.75 72.648438 "/>
<path style=" stroke:none;fill-rule:nonzero;fill:rgb(1.998901%,25.498962%,39.99939%);fill-opacity:1;" d="M 57.960938 68.402344 L 59.921875 68.402344 L 59.027344 72.703125 C 58.914063 73.21875 58.859375 73.539063 58.859375 73.667969 C 58.859375 73.878906 58.9375 74.058594 59.09375 74.207031 C 59.25 74.359375 59.449219 74.433594 59.6875 74.433594 C 59.859375 74.433594 60.03125 74.398438 60.203125 74.332031 C 60.371094 74.269531 60.542969 74.167969 60.71875 74.03125 C 60.898438 73.898438 61.058594 73.746094 61.199219 73.570313 C 61.339844 73.398438 61.472656 73.171875 61.59375 72.886719 C 61.683594 72.679688 61.777344 72.335938 61.875 71.863281 L 62.601563 68.402344 L 64.5625 68.402344 L 63.042969 75.664063 L 61.214844 75.664063 L 61.417969 74.679688 C 60.617188 75.449219 59.742188 75.835938 58.800781 75.835938 C 58.203125 75.835938 57.734375 75.664063 57.390625 75.320313 C 57.050781 74.980469 56.878906 74.523438 56.878906 73.949219 C 56.878906 73.695313 56.957031 73.199219 57.109375 72.449219 L 57.960938 68.402344 "/>
<path style=" stroke:none;fill-rule:nonzero;fill:rgb(1.998901%,25.498962%,39.99939%);fill-opacity:1;" d="M 71.910156 73.394531 L 72.96875 73.507813 C 72.703125 74.285156 72.328125 74.863281 71.835938 75.238281 C 71.347656 75.617188 70.789063 75.804688 70.164063 75.804688 C 69.488281 75.804688 68.941406 75.585938 68.519531 75.148438 C 68.101563 74.710938 67.890625 74.097656 67.890625 73.3125 C 67.890625 72.632813 68.023438 71.964844 68.292969 71.308594 C 68.5625 70.652344 68.949219 70.15625 69.453125 69.8125 C 69.953125 69.472656 70.527344 69.300781 71.171875 69.300781 C 71.839844 69.300781 72.367188 69.488281 72.757813 69.867188 C 73.148438 70.242188 73.34375 70.742188 73.34375 71.363281 L 72.300781 71.433594 C 72.296875 71.039063 72.183594 70.730469 71.960938 70.507813 C 71.734375 70.285156 71.4375 70.171875 71.070313 70.171875 C 70.644531 70.171875 70.277344 70.308594 69.964844 70.578125 C 69.652344 70.847656 69.40625 71.257813 69.230469 71.804688 C 69.050781 72.355469 68.960938 72.882813 68.960938 73.390625 C 68.960938 73.921875 69.078125 74.320313 69.3125 74.585938 C 69.546875 74.851563 69.835938 74.984375 70.179688 74.984375 C 70.523438 74.984375 70.855469 74.851563 71.167969 74.589844 C 71.484375 74.328125 71.730469 73.929688 71.910156 73.394531 "/>
<path style=" stroke:none;fill-rule:nonzero;fill:rgb(1.998901%,25.498962%,39.99939%);fill-opacity:1;" d="M 74.382813 73.195313 C 74.382813 73.78125 74.523438 74.226563 74.804688 74.53125 C 75.085938 74.832031 75.445313 74.984375 75.878906 74.984375 C 76.105469 74.984375 76.328125 74.9375 76.550781 74.847656 C 76.773438 74.753906 76.980469 74.613281 77.171875 74.425781 C 77.363281 74.238281 77.527344 74.027344 77.660156 73.785156 C 77.796875 73.546875 77.90625 73.285156 77.988281 73.007813 C 78.109375 72.621094 78.167969 72.25 78.167969 71.894531 C 78.167969 71.332031 78.027344 70.898438 77.742188 70.585938 C 77.460938 70.277344 77.105469 70.121094 76.675781 70.121094 C 76.34375 70.121094 76.039063 70.199219 75.765625 70.359375 C 75.492188 70.515625 75.246094 70.746094 75.023438 71.050781 C 74.804688 71.355469 74.640625 71.710938 74.539063 72.117188 C 74.433594 72.519531 74.382813 72.878906 74.382813 73.195313 Z M 73.324219 73.300781 C 73.324219 72.085938 73.679688 71.082031 74.394531 70.285156 C 74.984375 69.628906 75.757813 69.300781 76.714844 69.300781 C 77.464844 69.300781 78.070313 69.535156 78.527344 70.003906 C 78.988281 70.472656 79.21875 71.105469 79.21875 71.902344 C 79.21875 72.617188 79.074219 73.28125 78.785156 73.898438 C 78.496094 74.511719 78.082031 74.984375 77.550781 75.3125 C 77.015625 75.640625 76.457031 75.804688 75.867188 75.804688 C 75.382813 75.804688 74.941406 75.699219 74.542969 75.492188 C 74.148438 75.285156 73.84375 74.992188 73.636719 74.613281 C 73.425781 74.234375 73.324219 73.796875 73.324219 73.300781 "/>
<path style=" stroke:none;fill-rule:nonzero;fill:rgb(1.998901%,25.498962%,39.99939%);fill-opacity:1;" d="M 79.324219 75.664063 L 80.625 69.441406 L 81.683594 69.441406 L 81.46875 70.464844 C 81.863281 70.023438 82.214844 69.71875 82.523438 69.550781 C 82.835938 69.382813 83.171875 69.300781 83.535156 69.300781 C 83.921875 69.300781 84.246094 69.402344 84.503906 69.609375 C 84.765625 69.8125 84.9375 70.097656 85.019531 70.464844 C 85.335938 70.074219 85.667969 69.785156 86.015625 69.589844 C 86.367188 69.398438 86.734375 69.300781 87.121094 69.300781 C 87.640625 69.300781 88.03125 69.421875 88.289063 69.667969 C 88.550781 69.914063 88.679688 70.261719 88.679688 70.707031 C 88.679688 70.898438 88.636719 71.214844 88.546875 71.65625 L 87.707031 75.664063 L 86.648438 75.664063 L 87.503906 71.550781 C 87.578125 71.214844 87.613281 70.972656 87.613281 70.828125 C 87.613281 70.625 87.550781 70.464844 87.421875 70.347656 C 87.292969 70.230469 87.109375 70.171875 86.875 70.171875 C 86.558594 70.171875 86.238281 70.269531 85.910156 70.460938 C 85.582031 70.652344 85.324219 70.902344 85.144531 71.214844 C 84.960938 71.523438 84.804688 72 84.667969 72.644531 L 84.035156 75.664063 L 82.972656 75.664063 L 83.851563 71.460938 C 83.914063 71.175781 83.945313 70.972656 83.945313 70.851563 C 83.945313 70.648438 83.882813 70.484375 83.753906 70.359375 C 83.628906 70.234375 83.464844 70.171875 83.261719 70.171875 C 82.960938 70.171875 82.644531 70.269531 82.3125 70.460938 C 81.984375 70.652344 81.714844 70.917969 81.507813 71.261719 C 81.300781 71.601563 81.132813 72.089844 81 72.722656 L 80.382813 75.664063 L 79.324219 75.664063 "/>
<path style=" stroke:none;fill-rule:nonzero;fill:rgb(1.998901%,25.498962%,39.99939%);fill-opacity:1;" d="M 90.332031 72.007813 L 93.824219 72.007813 C 93.828125 71.898438 93.832031 71.820313 93.832031 71.773438 C 93.832031 71.242188 93.699219 70.835938 93.433594 70.550781 C 93.167969 70.269531 92.824219 70.125 92.40625 70.125 C 91.953125 70.125 91.542969 70.28125 91.167969 70.59375 C 90.796875 70.90625 90.515625 71.378906 90.332031 72.007813 Z M 93.414063 73.546875 L 94.445313 73.652344 C 94.296875 74.164063 93.957031 74.652344 93.425781 75.113281 C 92.890625 75.574219 92.253906 75.804688 91.515625 75.804688 C 91.054688 75.804688 90.632813 75.699219 90.25 75.484375 C 89.863281 75.273438 89.570313 74.960938 89.371094 74.554688 C 89.167969 74.148438 89.066406 73.6875 89.066406 73.167969 C 89.066406 72.488281 89.226563 71.828125 89.539063 71.191406 C 89.855469 70.550781 90.261719 70.078125 90.761719 69.765625 C 91.261719 69.457031 91.800781 69.300781 92.382813 69.300781 C 93.125 69.300781 93.71875 69.53125 94.164063 69.992188 C 94.605469 70.453125 94.828125 71.082031 94.828125 71.878906 C 94.828125 72.183594 94.800781 72.496094 94.746094 72.816406 L 90.164063 72.816406 C 90.148438 72.9375 90.140625 73.046875 90.140625 73.144531 C 90.140625 73.726563 90.273438 74.171875 90.542969 74.476563 C 90.808594 74.785156 91.136719 74.9375 91.523438 74.9375 C 91.886719 74.9375 92.242188 74.816406 92.59375 74.578125 C 92.945313 74.339844 93.21875 73.996094 93.414063 73.546875 "/>
<path style=" stroke:none;fill-rule:nonzero;fill:rgb(1.998901%,25.498962%,39.99939%);fill-opacity:1;" d="M 103.113281 68.402344 L 102.8125 69.839844 L 101.425781 69.839844 L 100.207031 75.664063 L 98.246094 75.664063 L 99.464844 69.839844 L 98.371094 69.839844 L 98.671875 68.402344 L 99.765625 68.402344 L 99.921875 67.660156 C 100.050781 67.046875 100.167969 66.636719 100.285156 66.421875 C 100.4375 66.128906 100.671875 65.898438 100.976563 65.726563 C 101.285156 65.554688 101.6875 65.472656 102.183594 65.472656 C 102.785156 65.472656 103.417969 65.582031 104.085938 65.800781 L 103.703125 67.199219 C 103.230469 67.042969 102.851563 66.960938 102.558594 66.960938 C 102.335938 66.960938 102.171875 67.03125 102.0625 67.171875 C 101.988281 67.265625 101.914063 67.503906 101.835938 67.890625 L 101.726563 68.402344 L 103.113281 68.402344 "/>
<path style=" stroke:none;fill-rule:nonzero;fill:rgb(1.998901%,25.498962%,39.99939%);fill-opacity:1;" d="M 104.25 65.640625 L 106.210938 65.640625 L 105.839844 67.417969 L 103.878906 67.417969 Z M 103.675781 68.402344 L 105.636719 68.402344 L 104.117188 75.664063 L 102.15625 75.664063 L 103.675781 68.402344 "/>
<path style=" stroke:none;fill-rule:nonzero;fill:rgb(1.998901%,25.498962%,39.99939%);fill-opacity:1;" d="M 106.894531 68.402344 L 108.726563 68.402344 L 108.433594 69.8125 C 109.117188 68.757813 109.855469 68.234375 110.65625 68.234375 C 110.9375 68.234375 111.242188 68.304688 111.5625 68.445313 L 110.8125 70.050781 C 110.632813 69.988281 110.445313 69.957031 110.246094 69.957031 C 109.90625 69.957031 109.566406 70.082031 109.214844 70.339844 C 108.867188 70.59375 108.59375 70.933594 108.398438 71.359375 C 108.203125 71.785156 108.007813 72.460938 107.816406 73.386719 L 107.339844 75.664063 L 105.378906 75.664063 L 106.894531 68.402344 "/>
<path style=" stroke:none;fill-rule:nonzero;fill:rgb(1.998901%,25.498962%,39.99939%);fill-opacity:1;" d="M 110.121094 73.632813 L 112.023438 73.332031 C 112.191406 73.734375 112.398438 74.015625 112.652344 74.183594 C 112.902344 74.351563 113.242188 74.433594 113.675781 74.433594 C 114.121094 74.433594 114.480469 74.332031 114.75 74.132813 C 114.9375 73.996094 115.03125 73.828125 115.03125 73.632813 C 115.03125 73.5 114.980469 73.382813 114.886719 73.277344 C 114.785156 73.175781 114.515625 73.054688 114.074219 72.910156 C 112.886719 72.515625 112.152344 72.207031 111.871094 71.980469 C 111.429688 71.625 111.207031 71.160156 111.207031 70.585938 C 111.207031 70.011719 111.421875 69.515625 111.851563 69.101563 C 112.449219 68.523438 113.335938 68.234375 114.511719 68.234375 C 115.445313 68.234375 116.152344 68.402344 116.628906 68.746094 C 117.109375 69.085938 117.410156 69.550781 117.539063 70.132813 L 115.726563 70.449219 C 115.632813 70.183594 115.476563 69.984375 115.261719 69.851563 C 114.96875 69.675781 114.621094 69.585938 114.210938 69.585938 C 113.800781 69.585938 113.503906 69.65625 113.324219 69.792969 C 113.144531 69.929688 113.054688 70.085938 113.054688 70.261719 C 113.054688 70.445313 113.144531 70.597656 113.328125 70.714844 C 113.441406 70.789063 113.808594 70.914063 114.429688 71.097656 C 115.386719 71.375 116.027344 71.648438 116.347656 71.917969 C 116.804688 72.296875 117.03125 72.75 117.03125 73.285156 C 117.03125 73.972656 116.742188 74.570313 116.164063 75.074219 C 115.585938 75.582031 114.769531 75.835938 113.71875 75.835938 C 112.667969 75.835938 111.859375 75.640625 111.289063 75.257813 C 110.714844 74.871094 110.328125 74.332031 110.121094 73.632813 "/>
<path style=" stroke:none;fill-rule:nonzero;fill:rgb(1.998901%,25.498962%,39.99939%);fill-opacity:1;" d="M 118.09375 69.859375 L 118.394531 68.402344 L 119.351563 68.402344 L 119.589844 67.242188 L 121.839844 65.886719 L 121.3125 68.402344 L 122.507813 68.402344 L 122.207031 69.859375 L 121.003906 69.859375 L 120.371094 72.902344 C 120.253906 73.453125 120.199219 73.769531 120.199219 73.84375 C 120.199219 73.996094 120.246094 74.113281 120.34375 74.195313 C 120.4375 74.28125 120.609375 74.324219 120.863281 74.324219 C 120.949219 74.324219 121.164063 74.308594 121.511719 74.277344 L 121.203125 75.730469 C 120.867188 75.800781 120.519531 75.835938 120.164063 75.835938 C 119.472656 75.835938 118.96875 75.699219 118.652344 75.433594 C 118.339844 75.167969 118.183594 74.796875 118.183594 74.324219 C 118.183594 74.101563 118.265625 73.585938 118.433594 72.777344 L 119.042969 69.859375 L 118.09375 69.859375 "/>
</g>
</svg>
